<?xml version="1.0" encoding="UTF-8"?>
<svg id="Layer_1" data-name="Layer 1" xmlns="http://www.w3.org/2000/svg" viewBox="0 0 1149.85 986.58">
  <path d="M902.99,758.99c8.5,1.39,17.83,4.05,26.48,4.08,73.61.27,120.66-69.49,93.99-138.05-1.84-4.72-4.97-9.13-6.47-14.02,1.42-1.44,9.65,9.46,10.62,10.87,38.43,55.64,6.47,132.71-57.18,150.07-25.23,6.88-50.77,3.13-73.74-8.84-64.73,59.37-142.7,104.87-227.49,129.1-1.54,8.47-2.27,16.42-4.72,24.8-17.87,61.3-89.37,87.5-144.52,56.52-23.59-13.25-37.86-34.04-45.64-59.6-149.79-10.81-290.13-83.17-384.91-198.87-2.28-.49-6.1,10.62-6.89,13-27.33,82.53,49.98,156.62,131.44,124.44,6.56-2.59,12.59-6.63,19.01-9.48.44,1.89-1.07,2.37-2,3.49-12.77,15.47-44.79,27.33-64.49,27.57-72.28.88-125.35-77.39-92.05-143.11,3.43-6.77,9.06-12.61,12.33-19.28-30.57-39.12-56.55-81.99-74.54-128.43-4.76-12.28-9.76-25.31-12.24-38.24l23.76,38.72c130.08,195.75,372.51,299.44,603.44,234.99,326.7-91.17,477.92-449.52,339.5-755.93-9.17-20.3-21.94-39.62-30.92-59.08-.43-.94-1.58-3.08-.3-3.7,55.15,57.32,94.98,128.48,117.04,204.96,2.1,3.2,8.69,1.59,11.95,2.05,64.45,9,100.89,73.07,78.99,133.96-11.04,30.67-38.18,53.51-70.04,59.96-6.28,65.21-22.75,129.4-50.25,188.75-21.26,45.87-50.73,91.05-83.66,129.34-10.38,12.07-25.85,25.09-35.02,36.98-.77,1-1.94,1.27-1.49,3ZM1073,397.99c1.26,1.31,12.02-5.35,13.91-6.58,34.77-22.51,53.31-66.83,43.61-107.45-8.57-35.9-39.73-65.08-75.52-72.97,15.85,61.1,22.59,123.81,18,186.99ZM662.51,894.05c-53.86,15.7-110.83,22.37-167.06,20.99-4.43-.11-10.59-3.08-14.44.46,23.72,44.45,78.12,67.08,125.65,46.67,20.62-8.85,39.23-26.58,49.5-46.5,1.91-3.7,7.43-15.9,7.65-19.38.08-1.3-.42-1.48-1.3-2.24Z"/>
  <path d="M68.99,500c2.82-.56,1.6.81,2.31,2.14,127.98,239.89,430.27,328.66,663.21,178.87,200.36-128.84,264.13-397.25,154.33-607.38l-23.84-41.65c16.35,17.07,31.18,37.73,43.41,58.08,141.99,236.31,39.25,545.01-206.06,660.78-199.17,93.99-442.81,37.4-574.18-139.54-24.85-33.47-46.04-71.73-59.18-111.31Z"/>
  <path d="M227.3,255.31c5.15-4.72,15.81-2.82,22.18-3.32,27.45-2.14,75.06-8.72,100.29-1.27,18.44,5.44,31.86,24.15,38.7,41.3,9.82,24.61,13.38,90.94,4.79,115.75-2.55,7.35-8.63,13.51-5.03,21.49,5.58,12.37,20.18,9.42,25.46,30.54,23.62,94.49-80.86,88.07-142.19,91.21-7.02.36-20.09,3.24-26.24,1.22-3.71-1.22-6.64-4.99-7.21-8.79-3.18-21.22-1.88-47.17-3.02-68.98-3.48-66.77-9.26-135.28-10-202-.06-5.12-2.72-12.58,2.26-17.15ZM305.78,273.29c-15.34.56-30.71,2.36-46.07,2.93-4.44,1.3-7.19,4.05-8.5,8.5.72,30.68,3.17,61.16,4.81,91.73.65,12.01-.07,25,.97,37.03,1.49,17.2,9.72,15.07,24.47,14.5,16.88-.64,56.17-1.74,70.19-7.81,24.65-10.68,21.28-44.8,20.36-67.72-1-25.1-3.37-45.04-20.53-64.47-14.2-16.09-25.52-15.43-45.72-14.69ZM384.64,501.64c9.72-10.62,8.47-29.01-2.74-38.06-21.84-17.64-54.67-13.17-80.42-11.6-8.62.53-30.02-.54-36.67,3.33-8.02,4.67-4.02,16.83-3.78,24.14.37,11.02-.2,24.13,1.07,34.93,1.78,15.09,11.95,10.93,22.4,10.62,28.77-.86,79.28-.58,100.14-23.36Z"/>
  <path d="M508.79,297.29c38.34-2.56,60.73,10.12,69.93,48.48l17.84,116.29c-1.49,9.37-15.89,6.97-22.58,9.43-3.43,1.26-7.32,5.17-11.01,6.99-19.97,9.83-67.53,15.98-89.23,12.27-34.1-5.83-45.35-33.05-42.74-65.23,3.15-38.81,63.67-53.59,95.44-55.56,7.46-.46,27.38,3.35,28.59-5.41,2.59-18.71-11.63-37.52-29.99-41.11-23.72-4.64-70.44,3.98-77.58,31.53-2.42,9.32,2.03,22.44-7.66,25.34-21,6.29-20.15-6.77-18.85-23.85,3.48-45.65,49.42-56.6,87.84-59.16ZM521.78,396.29c-19.32.82-49.71,6.67-61.79,23.21-8.02,10.97-4.49,32.33,6.5,40.5,16.93,12.57,57.02,5.14,76.51-.49,18.4-5.32,24.44-11.19,23.03-31.05-1.9-26.72-20.05-33.19-44.24-32.17Z"/>
  <path d="M721.79,280.29c21.81-2.03,62.74.94,80.21,15.19,25.91,21.12,16.3,55.63,14,84.02-1.7,20.97-1.8,45.46-5.13,65.87-2.6,15.92-12.86,7.76-25.31,9.69-2.44.38-4.66,2.15-7.36,2.64-29.68,5.4-96.86,1.08-110.93-31.48-7.03-16.27-2.6-50,11.82-61.64,21.72-17.54,62.07-16.67,88.25-12.42,5.61.91,20.91,5.97,24.65,4.31,2.99-1.33,3.73-6.97,4-9.99,2.39-26.86-15.37-39.04-39.6-42.37-21.67-2.98-50.92-2.28-59.86,21.91-2.77,7.5-.79,16.28-12.02,16.05-14.93-.3-14.74-5.4-12-18.08,5.65-26.23,22.62-41.21,49.3-43.7ZM723.79,372.29c-17.24,1.49-34.14,7.73-35.78,27.22-2.97,35.13,40.41,36.01,65.47,36.49,1.69.03,3.47,1.04,5.06,1.03,7.79-.05,20.77-1.63,25.98-8,6-7.34,7.99-27.54,3.87-35.94-9.04-18.44-46.63-22.35-64.6-20.8Z"/>
  <path d="M631.31,511.68c-2.37-2.59-2.91-11.25-3.31-15.19-8.66-85.35-11.06-171.57-20.05-256.95.52-4.9-1.72-12.89,3.1-15.98,5.79-3.72,12.38-.46,13.89,5.99,6.44,77.24,10.52,154.71,17.06,231.94.47,5.54,1.66,26.22,3.57,29.43,2.3,3.87,6.74,4.59,10.91,4.07l122.89-15.67c4.36.75,8.5,3.24,8.49,8.18-.02,7.78-5.65,8.24-11.52,9.33-43.18,8.04-89.43,9.18-132.85,17.14-3.94.02-9.25.89-12.17-2.3Z"/>
  <path d="M450.64,223.34c4.31,4.52,8.9,9.84,3.91,15.71l-37.56,22.46c-.89,3.63,10.98,5.63,13.49,5.56,7.28-.19,17.08-10.09,21.39-3.48,4.04,6.2-5.52,12.89-10.51,15.27-28.52,13.62-59.99-13.13-49.55-43.55,8.6-25.07,40.82-30.84,58.82-11.98ZM418.73,223.23c-9.45,1.61-17.66,11.62-16.83,21.27.65,7.49,5.53,4.8,9.76,2.66,3.26-1.65,25.18-13.81,25.86-15.16,4.12-8.19-13.71-9.63-18.79-8.77Z"/>
  <path d="M410.37,200.35c1.24-1.89,14.39-16.32,15.66-16.89,3.69-1.68,9.29,3.49,6.03,7.1-5.59,2.2-14.44,13.52-19.02,15.01-1.46.47-2.49.85-3.58-.56-1.13-1.67.02-3.29.92-4.66Z"/>
</svg>